<?xml version="1.0" encoding="UTF-8" standalone="no" ?>
<!DOCTYPE svg PUBLIC "-//W3C//DTD SVG 1.1//EN" "http://www.w3.org/Graphics/SVG/1.1/DTD/svg11.dtd">
<svg xmlns="http://www.w3.org/2000/svg" xmlns:xlink="http://www.w3.org/1999/xlink" version="1.1" width="1500" height="1500" viewBox="0 0 500 500" xml:space="preserve">
<desc>Created with Fabric.js 4.6.0</desc>
<defs>
</defs>
<g transform="matrix(23.78 0 0 23.78 239.78 249.44)" id="xR3SuMT_mFeCJGAGCWTyq"  >
<path style="stroke: none; stroke-width: 1; stroke-dasharray: none; stroke-linecap: butt; stroke-dashoffset: 0; stroke-linejoin: miter; stroke-miterlimit: 4; fill: rgb(18,60,105); fill-rule: nonzero; opacity: 1;" vector-effect="non-scaling-stroke"  transform=" translate(-12, -11.56)" d="M 12.5 3.247 C 12.190598923241497 3.068367205045918 11.809401076758503 3.068367205045918 11.5 3.247 L 4 7.577 L 4 20 L 8.5 20 L 8.5 14 C 8.5 13.447715250169207 8.947715250169207 13 9.5 13 L 14.5 13 C 15.052284749830793 13 15.5 13.447715250169207 15.5 14 L 15.5 20 L 20 20 L 20 7.577 L 12.5 3.247 z M 10.5 1.515 C 11.428203230275509 0.979101615137754 12.57179676972449 0.9791016151377543 13.499999999999998 1.514999999999999 L 21 5.845 C 21.618786433875634 6.202256513861572 21.999981848531938 6.862486972046293 22 7.576999999999997 L 22 21 C 22 21.552284749830793 21.552284749830793 22 21 22 L 14.5 22 C 13.947715250169207 22 13.5 21.552284749830793 13.5 21 L 13.5 15 L 10.5 15 L 10.5 21 C 10.5 21.552284749830793 10.052284749830793 22 9.5 22 L 3 22 C 2.4477152501692068 22 2 21.552284749830793 2 21 L 2 7.577 C 2.00001815146806 6.8624869720462955 2.3812135661243663 6.202256513861573 2.999999999999999 5.845000000000001 L 10.5 1.5149999999999997 z" stroke-linecap="round" />
</g>
</svg>